<?xml version="1.0" encoding="UTF-8"?>
<svg version="1.1" xmlns="http://www.w3.org/2000/svg" width="3840" height="2160">
<path d="M0 0 C-0.9178125 0.71285156 -1.835625 1.42570312 -2.78125 2.16015625 C-13.76237167 10.64720822 -13.76237167 10.64720822 -24 20 C-27.89946233 23.89946233 -32.16761309 27.42109328 -36.34375 31.01953125 C-40.65665717 34.77894866 -44.3409229 38.59034298 -48 43 C-49.17382214 44.01602058 -50.36303962 45.01437784 -51.5625 46 C-56.26641041 49.96639482 -60.07702281 54.63117705 -63.96313477 59.37695312 C-65.26886254 60.95191409 -66.63013049 62.48049858 -68 64 C-68.66 64 -69.32 64 -70 64 C-70.25394531 64.5775 -70.50789063 65.155 -70.76953125 65.75 C-72.14070879 68.25729608 -73.70262758 69.9432941 -75.6875 72 C-81.77640112 78.62180332 -87.00709834 85.87269318 -92.3515625 93.09765625 C-95.32009972 97.1095587 -98.35543022 101.0628532 -101.43505859 104.98999023 C-101.95148926 105.65329346 -102.46791992 106.31659668 -103 107 C-103.53447754 107.68070557 -104.06895508 108.36141113 -104.61962891 109.06274414 C-106.15902047 111.22317429 -107.04568042 113.47356282 -108.046875 115.91796875 C-109.97461841 120.12898202 -112.28773449 124.24513661 -115 128 C-115.66 128 -116.32 128 -117 128 C-117.37705078 129.26650391 -117.37705078 129.26650391 -117.76171875 130.55859375 C-119.10336097 134.28725873 -120.87998859 137.6213131 -122.8125 141.0625 C-125.95696402 146.8110838 -128.55868591 152.55426276 -130.79296875 158.7265625 C-131.61341958 160.95160391 -132.4937646 163.15527388 -133.42578125 165.3359375 C-148.89766256 201.55693095 -152.39685387 244.32312057 -137.953125 281.47265625 C-130.97154354 298.61732886 -130.97154354 298.61732886 -121.2734375 314.27734375 C-120 316 -120 316 -120 318 C-119.34 318 -118.68 318 -118 318 C-116.51675263 319.77989685 -115.11329018 321.62663526 -113.75 323.5 C-112.62851563 325.03140625 -112.62851563 325.03140625 -111.484375 326.59375 C-110.19056826 328.36321714 -108.90314321 330.13593118 -107.63110352 331.92114258 C-103.96680135 336.96854823 -99.90111552 341.3402877 -95.4375 345.6875 C-94.46780273 346.64366211 -94.46780273 346.64366211 -93.47851562 347.61914062 C-92.22411946 348.85567153 -90.96730141 350.08975166 -89.70776367 351.32104492 C-88.2114697 352.79209762 -86.73668931 354.28496744 -85.265625 355.78125 C-83.3488392 357.65837816 -81.48510743 359.25255844 -79.3125 360.8125 C-76.19277689 363.10107736 -73.14320985 365.45379869 -70.125 367.875 C-69.28453125 368.54789063 -68.4440625 369.22078125 -67.578125 369.9140625 C-65.84914193 371.31296698 -64.13042334 372.72464722 -62.421875 374.1484375 C-57.46808094 378.23607738 -52.84176464 381.33533543 -47 384 C-46.01 384.66 -45.02 385.32 -44 386 C-44 386.66 -44 387.32 -44 388 C-43.32582031 388.23460937 -42.65164063 388.46921875 -41.95703125 388.7109375 C-38.26207576 390.32168428 -35.05873052 392.43154043 -31.6875 394.625 C-25.86183155 398.33314845 -19.99208412 401.66706569 -13.77832031 404.67382812 C-9.31353355 406.83689252 -4.90476933 409.08496633 -0.515625 411.3984375 C14.99596361 419.63750921 14.99596361 419.63750921 31.140625 426.515625 C36.34827178 428.46637216 41.41089223 430.76262502 46.5 433 C56.27533238 437.27519888 56.27533238 437.27519888 66.125 441.375 C67.15882812 441.79523438 68.19265625 442.21546875 69.2578125 442.6484375 C72.48397228 443.81362673 75.70219563 444.83700409 78.984375 445.828125 C85.78372293 447.89268075 92.46443009 450.24781191 99.1456604 452.66116333 C108.65669364 456.09125905 118.17736458 459.49468567 127.8125 462.5625 C128.51455566 462.78921387 129.21661133 463.01592773 129.93994141 463.24951172 C133.46806678 464.35039616 136.95699267 465.20509772 140.59326172 465.87011719 C146.04349517 466.94449221 151.26082664 468.52016677 156.55078125 470.19921875 C167.96466514 473.74396717 179.45635971 476.92137601 191.01098633 479.97241211 C194.22608555 480.82270466 197.43825521 481.68350875 200.65039062 482.54492188 C202.73941672 483.09958622 204.82860367 483.65364517 206.91796875 484.20703125 C207.85569626 484.45910843 208.79342377 484.71118561 209.75956726 484.97090149 C215.46795156 486.46767024 221.15032847 487.57115911 226.97770691 488.49409485 C232.01591575 489.33744648 236.98824893 490.46145336 241.97265625 491.57421875 C244.26096905 492.07901714 246.54929981 492.5837341 248.83764648 493.08837891 C250.01817596 493.34983704 251.19870544 493.61129517 252.41500854 493.88067627 C269.18809317 497.59087625 285.96422648 501.29690635 302.80392456 504.69448853 C304.19474225 504.97512682 305.58516605 505.25772648 306.97512817 505.54257202 C314.41941225 507.06403914 321.82513069 508.27233678 329.37176514 509.15185547 C338.71932745 510.27617534 347.98271851 511.95682455 357.26092529 513.54098511 C377.76964702 517.03642879 398.3023561 520.34071586 418.875 523.4375 C419.98007904 523.6045343 421.08515808 523.7715686 422.22372437 523.94366455 C437.91561781 526.31124994 453.56251433 528.57588215 469.3828125 529.87890625 C484.17834021 531.10357978 498.90568539 532.90670059 513.64428711 534.67095947 C517.34717486 535.11340532 521.0505657 535.55159775 524.75390625 535.99023438 C541.50468034 537.97605374 558.25266654 539.98539387 575 542 C575.11795425 541.26395035 575.23590851 540.5279007 575.35743713 539.76954651 C576.50453455 532.73387805 577.81632417 525.75394238 579.27734375 518.77734375 C579.71300707 516.66994594 580.14855009 514.56252327 580.58398438 512.45507812 C581.25797791 509.20610242 581.93334271 505.95742458 582.61108398 502.70922852 C585.83297312 487.27251099 585.83297312 487.27251099 588.45703125 471.7265625 C590.37663309 458.86836825 593.12638353 446.1665213 595.75 433.4375 C596.29058349 430.79967352 596.82971292 428.16155043 597.36889648 425.5234375 C599.63815611 414.42932091 601.92430688 403.33878301 604.23828125 392.25390625 C604.55698986 390.72274257 604.87567587 389.19157418 605.19433594 387.66040039 C605.74261535 385.02676835 606.29733023 382.39481037 606.85644531 379.76342773 C608.02476643 374.17618981 609.08120074 368.60209939 609.91732788 362.95472717 C612.14355529 347.96552434 615.36700132 333.16703052 618.46270752 318.33892822 C619.25076529 314.56052601 620.03452154 310.78123264 620.81835938 307.00195312 C620.97141352 306.2642185 621.12446766 305.52648388 621.28215981 304.76639366 C622.60333359 298.39781554 623.92417453 292.02916834 625.24237061 285.65997314 C625.71029116 283.399532 626.17879708 281.13921184 626.64825439 278.87908936 C628.39025787 270.4710707 630.01958584 262.08490048 631.2734375 253.58984375 C633.55722063 238.31310409 636.96124889 223.20718073 640.10113525 208.08850098 C640.8054753 204.69227389 641.50583247 201.29523096 642.20603371 197.89814854 C643.044864 193.8289562 643.88547532 189.76013263 644.7265625 185.69140625 C644.88544575 184.92253145 645.04432899 184.15365665 645.20802689 183.36148262 C645.65676749 181.19204128 646.10672311 179.02285593 646.55712891 176.85375977 C646.93993515 175.00778954 646.93993515 175.00778954 647.33047485 173.12452698 C647.84273579 170.73391756 648.38325583 168.36518105 649 166 C649.66 166 650.32 166 651 166 C651.60134766 167.80017578 651.60134766 167.80017578 652.21484375 169.63671875 C656.25684788 181.55247441 660.9224407 193.06909293 665.95849609 204.59472656 C669.51130985 212.79967761 672.80193317 221.01636512 675.234375 229.62890625 C676.3938863 233.21984175 678.01831351 236.56136576 679.62109375 239.97265625 C681.4292137 243.9423247 683.03076783 247.98358628 684.63037109 252.04101562 C685.95152857 255.38694513 687.29322603 258.72056681 688.69140625 262.03515625 C691.83139577 269.49119445 694.72044063 276.95994255 697.3125 284.625 C700.57784671 294.24501827 704.58960413 303.46963227 708.69921875 312.75390625 C711.94613822 320.1017834 714.87656483 327.53193052 717.35546875 335.17578125 C719.11667078 340.49094613 721.23020749 345.64253563 723.375 350.8125 C723.74882813 351.72064453 724.12265625 352.62878906 724.5078125 353.56445312 C726.54175987 358.49956174 728.59350094 363.42723689 730.64697266 368.35424805 C731.08981598 369.41685349 731.5326593 370.47945892 731.98892212 371.57426453 C732.32257782 372.37475723 732.65623352 373.17524994 733 374 C749.79445543 374.13080786 766.58891392 374.26121556 783.38337612 374.39115143 C791.18193647 374.4514968 798.98049578 374.5119714 806.77905273 374.57275391 C813.57900627 374.62575289 820.37896167 374.67850566 827.17891937 374.73096704 C830.77693417 374.75873406 834.37494795 374.78662147 837.97295952 374.81480408 C841.99686271 374.846318 846.02076995 374.87728204 850.04467773 374.90820312 C851.22791626 374.91755386 852.41115479 374.9269046 853.63024902 374.9365387 C859.75372896 374.98311558 865.8763432 375.00952046 872 375 C872.17015625 374.39994141 872.3403125 373.79988281 872.515625 373.18164062 C874.63215226 365.90326365 877.26901645 358.90554836 880.0390625 351.85546875 C882.02579278 346.73698426 883.7603056 341.62013126 885.29394531 336.34863281 C886.33630227 332.88131819 887.58375281 329.50607978 888.875 326.125 C889.13547119 325.43647949 889.39594238 324.74795898 889.66430664 324.03857422 C891.55617392 319.07321594 893.57507251 314.16906515 895.640625 309.2734375 C897.36713833 305.11591403 899.03750993 300.93840348 900.6875 296.75 C900.98519287 296.00508301 901.28288574 295.26016602 901.58959961 294.49267578 C903.18001771 290.43013093 904.40301073 286.46223251 905.40307617 282.20605469 C906.69229168 277.44149382 908.55568832 272.85762316 910.3125 268.25 C910.71766846 267.17886963 911.12283691 266.10773926 911.5402832 265.00415039 C913.86420655 258.88981348 916.25174347 252.81252489 918.8125 246.79296875 C920.30153895 243.29078831 921.7534709 239.77501438 923.1875 236.25 C923.92033203 234.46335937 923.92033203 234.46335937 924.66796875 232.640625 C926.06944122 229.02138462 926.06944122 229.02138462 926.91430664 225.23461914 C927.89225512 221.24468568 929.21938888 217.43304983 930.703125 213.60546875 C930.96305237 212.92381149 931.22297974 212.24215424 931.49078369 211.5398407 C932.04227075 210.0949639 932.59575325 208.65084733 933.15112305 207.2074585 C933.99687522 205.00812581 934.83631225 202.80648493 935.67382812 200.60400391 C937.07734538 196.91480944 938.48594916 193.22758919 939.89697266 189.54125977 C940.76403957 187.2758179 941.63011447 185.00999845 942.49609375 182.74414062 C943.05463003 181.28383219 943.61322165 179.82354491 944.171875 178.36328125 C944.42708923 177.69557205 944.68230347 177.02786285 944.94525146 176.33992004 C946.26947256 172.88193927 947.61416332 169.43376793 949 166 C951.3485681 169.88825608 951.99372423 174.17523514 952.84765625 178.56958008 C953.02029999 179.43364471 953.19294373 180.29770935 953.37081909 181.18795776 C953.94050573 184.04736659 954.50171082 186.90836519 955.0625 189.76953125 C955.45804083 191.76819638 955.85396138 193.76678641 956.25024414 195.76530457 C957.08102618 199.96187249 957.90771173 204.15922075 958.73144531 208.35717773 C959.78002799 213.69971556 960.83780223 219.04038088 961.89863586 224.38049793 C962.71889073 228.51431817 963.53454576 232.64903597 964.34884644 236.78403282 C964.73663092 238.75077529 965.1256983 240.7172653 965.5161438 242.68348122 C967.46542868 252.51417262 969.23966167 262.27901875 970.47610474 272.22612 C971.54155427 279.90108666 973.10462523 287.49101373 974.58984375 295.09375 C974.93888738 296.89718687 975.28755832 298.70069592 975.63587952 300.50427246 C976.54654721 305.21403175 977.46244965 309.92275792 978.37945557 314.63128662 C979.30520616 319.39025015 980.22549218 324.15027003 981.14648438 328.91015625 C982.50253232 335.91261401 983.86008347 342.91477689 985.22241211 349.91601562 C985.37497436 350.70230095 985.5275366 351.48858627 985.68472195 352.29869843 C986.36799667 355.80938785 987.06546209 359.31520186 987.79275513 362.81713867 C989.22604314 369.72482536 990.42287138 376.62395494 991.4296875 383.60375977 C992.83479583 393.30472344 994.63568046 402.90054935 996.559021 412.51075554 C997.14436888 415.43666056 997.72350523 418.3637415 998.30126953 421.29115295 C999.73584692 428.55411589 1001.1794511 435.81527586 1002.62475586 443.07611084 C1003.85253623 449.24494977 1005.07575465 455.41465878 1006.29290771 461.58560371 C1006.85513111 464.42693163 1007.42374637 467.26692701 1007.99267578 470.10691833 C1009.95526972 480.00020561 1011.66057399 489.88693422 1013.00241852 499.88486385 C1014.04856517 507.66924713 1015.55973049 515.31532024 1017.1875 523 C1017.72856404 525.56135565 1018.26243338 528.12391052 1018.79296875 530.6875 C1019.0252417 531.78449219 1019.25751465 532.88148438 1019.49682617 534.01171875 C1019.95750637 536.74763608 1020.09911288 539.23382058 1020 542 C1060.76837101 541.29060996 1101.4374549 538.95825861 1142.0625 535.5 C1143.25748108 535.39844604 1144.45246216 535.29689209 1145.68365479 535.19226074 C1160.11055091 533.95608994 1174.51143911 532.54473438 1188.90939331 531.00878906 C1195.16576103 530.35349937 1201.38414891 529.81415258 1207.66796875 529.53125 C1219.29789038 528.94305017 1230.7937238 527.14530468 1242.3125 525.5 C1244.15494293 525.23988632 1244.15494293 525.23988632 1246.03460693 524.97451782 C1276.24665714 520.69800521 1306.42390188 515.84273022 1336.31713867 509.69726562 C1339.71817816 509.05335652 1343.11357696 508.52143668 1346.53746033 508.02120972 C1358.05196435 506.32814886 1369.28705977 503.7411175 1380.5871582 500.97631836 C1383.79639836 500.19143796 1387.00823527 499.41803565 1390.22070312 498.64648438 C1402.31127094 495.72656801 1414.3323586 492.60879582 1426.31616211 489.27807617 C1430.44234066 488.13730793 1434.58390593 487.10969198 1438.75 486.125 C1455.13474652 482.07069667 1471.22139731 476.8220993 1487.02856445 470.92407227 C1492.22837122 468.98694487 1497.44526731 467.18915796 1502.73364258 465.50952148 C1516.93176564 460.98381095 1530.39211492 454.90280403 1543.90527344 448.65722656 C1547.92263293 446.80827316 1551.90706475 444.98519687 1556.0703125 443.48828125 C1560.85015024 441.75270149 1565.34115425 439.47855741 1569.875 437.1875 C1570.76123047 436.74245117 1571.64746094 436.29740234 1572.56054688 435.83886719 C1577.76553808 433.20185064 1582.81980452 430.43495882 1587.76171875 427.328125 C1590.21437989 425.87279378 1592.72605593 424.70097823 1595.3125 423.5 C1604.24480391 419.1382516 1612.30909256 413.28362847 1620.50439453 407.69506836 C1622.92137477 406.05340393 1625.35062335 404.43189381 1627.78515625 402.81640625 C1631.14802352 400.57845353 1634.47203761 398.29899066 1637.75 395.9375 C1639.07257812 394.99197266 1639.07257812 394.99197266 1640.421875 394.02734375 C1643.06344879 392.03490862 1643.06344879 392.03490862 1645.4140625 389.5703125 C1648.29774962 386.70404947 1651.37732329 384.36697055 1654.625 381.9375 C1660.60314464 377.37033623 1665.59261924 372.41605707 1670.5 366.7265625 C1673.16754003 363.81727665 1675.94866946 361.49729491 1679 359 C1682.63227391 355.33543921 1685.31527127 351.54565531 1687.75390625 346.9921875 C1689.36691221 344.41340054 1691.28325981 342.19474484 1693.25 339.875 C1707.01861792 323.23605131 1716.15736398 302.3723936 1723 282 C1723.56460938 280.42798828 1723.56460938 280.42798828 1724.140625 278.82421875 C1739.58297752 231.63285042 1728.91778355 175.42091019 1711.95898438 130.58056641 C1711.16455801 128.44281521 1710.41301375 126.30353033 1709.703125 124.13671875 C1704.63146421 108.79310731 1697.07591169 94.05303601 1688.90527344 80.13525391 C1686.96158395 76.81440055 1685.37348204 73.49860558 1683.90673828 69.94628906 C1681.94296411 65.73110122 1679.37523687 61.827929 1676.9375 57.875 C1675.85979819 56.12453546 1674.78546101 54.37199403 1673.71484375 52.6171875 C1673.24167725 51.85003418 1672.76851074 51.08288086 1672.28100586 50.29248047 C1670.95667668 47.92246885 1669.95343404 45.53931361 1669 43 C1668.34 43 1667.68 43 1667 43 C1666.443125 41.96101563 1665.88625 40.92203125 1665.3125 39.8515625 C1661.32750487 32.5281443 1657.32420628 25.76320881 1651.91796875 19.375 C1647.89345055 14.39148255 1644.64829032 8.82622485 1641.42578125 3.30078125 C1640.0706792 0.91828968 1640.0706792 0.91828968 1638 -1 C1647.95161534 -0.74965341 1656.94397683 2.04748193 1666.375 4.9375 C1668.01351068 5.43125454 1669.65210224 5.92474073 1671.29077148 6.41796875 C1682.798143 9.90659151 1694.1937153 13.67523664 1705.51123047 17.73803711 C1711.67505405 19.93743277 1717.78415316 21.74636389 1724.14819336 23.26660156 C1728.62974821 24.41912196 1732.92199247 25.999042 1737.25 27.625 C1738.643396 28.13897339 1738.643396 28.13897339 1740.06494141 28.66333008 C1745.1181353 30.53246393 1750.15783235 32.43664234 1755.1953125 34.34765625 C1757.25507934 35.12794477 1759.31497464 35.90789427 1761.375 36.6875 C1762.39239258 37.07317139 1763.40978516 37.45884277 1764.45800781 37.85620117 C1769.93154352 39.91255959 1775.39100148 41.78847766 1781 43.4375 C1791.01925534 46.45057471 1800.54562338 50.68924167 1810.15869141 54.78955078 C1814.13874334 56.48512541 1818.12881357 58.15537271 1822.125 59.8125 C1823.92324219 60.56466797 1823.92324219 60.56466797 1825.7578125 61.33203125 C1829.31544571 62.77479938 1832.92854721 64.02552818 1836.5546875 65.28515625 C1844.22595698 68.00430075 1851.59817721 71.2512887 1859 74.625 C1860.28233935 75.20359671 1861.56489099 75.78172315 1862.84765625 76.359375 C1872.052327 80.51761235 1872.052327 80.51761235 1876.15209961 82.60449219 C1878.46370386 83.737208 1880.54817907 84.57488275 1883.00390625 85.2890625 C1888.92169246 87.19434933 1894.47572885 89.85984837 1900.0925293 92.50585938 C1901.92857206 93.37079417 1903.76763878 94.22899171 1905.60742188 95.0859375 C1911.73824996 97.95385058 1917.83193206 100.87423896 1923.85522461 103.9621582 C1926.07540547 105.03648818 1928.31882417 105.93992068 1930.625 106.8125 C1942.31434475 111.37552571 1953.39496468 117.67048016 1964.44116211 123.58642578 C1967.70960751 125.32609913 1970.92771404 126.96959936 1974.34375 128.40625 C1979.55360019 130.67721034 1984.4620445 133.44737704 1989.4375 136.1875 C1996.37831018 139.98526223 2003.32178222 143.72769773 2010.4375 147.1875 C2019.90388446 151.81330099 2028.89099134 157.25979061 2037.87109375 162.7578125 C2042.14494903 165.36999285 2046.43233076 167.74252624 2050.9375 169.9375 C2056.92682205 172.88269394 2062.4171028 176.3568017 2068 180 C2070.65894666 181.69985651 2073.32735094 183.3842814 2076 185.0625 C2076.68900391 185.4951416 2077.37800781 185.9277832 2078.08789062 186.37353516 C2081.91309503 188.75655379 2085.76648939 191.01235781 2089.75 193.125 C2097.6747279 197.3428087 2104.9581379 202.5351461 2112.25 207.75 C2115.05635889 209.73672391 2117.7496204 211.44735747 2120.875 212.875 C2124.35100479 214.51682835 2127.2073342 216.58944838 2130.25 218.9375 C2135.61796322 223.06879321 2141.1744558 226.78092026 2146.875 230.4375 C2157.64752204 237.36190207 2168.03324203 244.60660494 2178.0703125 252.56640625 C2180.26057575 254.19358563 2182.59735118 255.4275475 2184.99609375 256.71875 C2188.9460293 259.24424486 2192.43003674 262.43231883 2196 265.4609375 C2203.19828258 271.66896827 2203.19828258 271.66896827 2211.25 276.625 C2214.54754386 278.27377193 2216.38700804 280.38700804 2219 283 C2221.5152378 285.16317506 2224.09929513 287.23753429 2226.6875 289.3125 C2227.39865967 289.88645508 2228.10981934 290.46041016 2228.8425293 291.05175781 C2233.42426869 294.74628929 2238.02207691 298.42076193 2242.62109375 302.09375 C2245.379387 304.30400797 2248.13052457 306.52259965 2250.875 308.75 C2251.75929688 309.46671875 2252.64359375 310.1834375 2253.5546875 310.921875 C2256 313 2256 313 2258.01953125 315.0234375 C2260.16486014 317.16453497 2262.42804201 319.00498412 2264.8125 320.875 C2276.09289183 329.82953784 2276.09289183 329.82953784 2278.9375 333.5 C2281.28128322 336.34094936 2283.82520415 338.18581286 2286.7890625 340.33984375 C2292.17607047 344.38485857 2297.11746306 348.82812479 2301.4375 354 C2303.92569599 356.94834182 2306.48343892 359.2406673 2309.5625 361.5625 C2314.94325493 365.70090937 2319.38970038 370.51391644 2323.91430664 375.54516602 C2327.22703922 379.20605354 2330.64383249 382.45593947 2334.43530273 385.61523438 C2336.57765066 387.51122399 2338.23800327 389.64299347 2339.9375 391.9375 C2343.01175042 395.90791222 2346.22179724 399.08628754 2350.0625 402.296875 C2354.7651079 406.43061904 2358.55762464 411.39189439 2362.3125 416.375 C2365.72852855 420.8450734 2369.63114537 424.66357788 2373.6484375 428.58984375 C2376.21527361 431.22063757 2378.36350084 433.96077494 2380.48242188 436.95458984 C2381.98214855 438.9759396 2383.56860742 440.84358719 2385.2421875 442.72265625 C2393.61698904 452.21680225 2401.7349039 461.97656713 2409.0625 472.3046875 C2411.39307389 475.5468165 2413.81166367 478.71353398 2416.25 481.875 C2416.8692334 482.6788916 2416.8692334 482.6788916 2417.50097656 483.49902344 C2419.36629213 485.91287209 2421.24943005 488.3063019 2423.17578125 490.671875 C2425.03493197 493.04458128 2426.46889307 495.52179934 2427.91796875 498.16015625 C2429.08387179 500.14261232 2430.38466246 501.96256378 2431.75 503.8125 C2434 507 2434 507 2434 509 C2434.99 509.33 2435.98 509.66 2437 510 C2438.6365338 512.20246527 2440.11307255 514.36794319 2441.5625 516.6875 C2442.16094727 517.60692383 2442.16094727 517.60692383 2442.77148438 518.54492188 C2445.1264932 522.25238986 2446.7890056 525.7386089 2448 530 C2448.66 530 2449.32 530 2450 530 C2451.24926758 531.72485352 2451.24926758 531.72485352 2452.64453125 534.12890625 C2453.15693359 534.99966797 2453.66933594 535.87042969 2454.19726562 536.76757812 C2454.73029297 537.68990234 2455.26332031 538.61222656 2455.8125 539.5625 C2459.98790626 546.8063204 2459.98790626 546.8063204 2464.671875 553.72265625 C2467.02551387 556.92452978 2468.73662102 560.27745741 2470.4375 563.875 C2472.77681593 568.70996756 2475.33093118 573.18705775 2478.39453125 577.59765625 C2480.42818154 580.6407096 2482.29083416 583.77206418 2484.125 586.9375 C2484.76695312 588.03964844 2485.40890625 589.14179687 2486.0703125 590.27734375 C2487.55759924 593.00079746 2488.72348276 595.75646681 2489.8359375 598.65234375 C2492.26101928 604.88616104 2495.37068674 610.7211709 2498.5 616.625 C2500.17774794 619.81310152 2501.85401075 623.00196176 2503.52734375 626.19238281 C2504.41069098 627.87648313 2505.29754944 629.55875883 2506.19140625 631.23730469 C2508.29099351 635.27082737 2509.80653129 639.27634851 2511.18212891 643.60693359 C2512.72718513 648.12772198 2514.74436418 652.45180234 2516.6875 656.8125 C2520.0129456 664.37877479 2523.28214958 671.96036925 2526.375 679.625 C2526.68397217 680.38014893 2526.99294434 681.13529785 2527.3112793 681.91333008 C2529.46557155 687.30286068 2531.19069246 692.772524 2532.86621094 698.32763672 C2534.13039925 702.42236552 2535.47370322 706.48528154 2536.83984375 710.546875 C2537.09106995 711.29492401 2537.34229614 712.04297302 2537.60113525 712.81369019 C2538.63673298 715.89358418 2539.6746302 718.97269063 2540.71557617 722.05078125 C2550.57166171 751.22454596 2550.57166171 751.22454596 2552.53369141 763.34765625 C2553.46196607 768.62764368 2554.88432901 773.80252817 2556.1875 779 C2561.88037456 802.26117556 2566.56505959 825.6623926 2569.9375 849.375 C2570.04531799 850.13137756 2570.15313599 850.88775513 2570.26422119 851.66705322 C2572.13079692 864.894701 2572.13079692 864.894701 2572 870 C2562.52982055 868.88922432 2553.44481158 867.31819043 2544.1875 865 C2529.80428222 861.51836692 2515.32617991 858.57140393 2500.8125 855.6875 C2499.71537689 855.46908447 2498.61825378 855.25066895 2497.48788452 855.02563477 C2494.31131557 854.39404703 2491.13432734 853.7646377 2487.95703125 853.13671875 C2487.01526031 852.95050461 2486.07348938 852.76429047 2485.10317993 852.57243347 C2482.40329814 852.04194225 2479.70220586 851.51851816 2477 851 C2476.06560593 850.82020599 2475.13121185 850.64041199 2474.16850281 850.45516968 C2468.65520031 849.42001463 2463.18734033 848.61615841 2457.60546875 848.078125 C2448.37944295 847.11614479 2439.25362611 845.68633251 2430.09970093 844.2003479 C2393.07262738 838.21761997 2355.84074998 833.48376013 2318.47393799 830.21679688 C2316.83099251 830.07282178 2315.18820754 829.92700267 2313.54559326 829.77929688 C2244.71564197 823.59464106 2171.73879611 822.21012013 2103 830 C2101.63537769 830.14569535 2100.27062866 830.29020824 2098.90576172 830.43359375 C2067.47054221 833.75213581 2036.60748659 839.29124945 2005.87458801 846.65074158 C2001.47363659 847.69252605 1997.06085361 848.55885851 1992.61328125 849.375 C1984.59717631 850.94840685 1976.97608864 853.39453629 1969.2565918 856.02368164 C1966.93971182 856.81174767 1964.61788755 857.58359746 1962.29492188 858.35351562 C1954.03952713 861.11677316 1946.06507763 864.18032352 1938.10180664 867.70507812 C1935.37933692 868.84163691 1932.74570539 869.72982741 1929.90625 870.51171875 C1923.77721277 872.2279994 1918.20248946 875.02346424 1912.5 877.8125 C1910.90478516 878.57530273 1910.90478516 878.57530273 1909.27734375 879.35351562 C1903.37033439 882.21279807 1897.68788082 885.26395222 1892.12036133 888.74023438 C1889.18576963 890.4837569 1886.15418676 891.70121721 1883 893 C1882.071875 893.556875 1881.14375 894.11375 1880.1875 894.6875 C1878 896 1878 896 1876 896 C1876 896.66 1876 897.32 1876 898 C1873.98560762 899.42048338 1871.97621502 900.71912802 1869.875 902 C1855.95235423 910.73654467 1842.60664493 920.29602471 1831 932 C1829.78034287 933.07340274 1828.55102426 934.1359228 1827.3125 935.1875 C1819.08851042 942.08964941 1819.08851042 942.08964941 1812.55078125 950.4609375 C1810.72228371 953.45469922 1808.50581197 955.55003823 1806 958 C1797.19204637 968.26898859 1790.00157838 979.45147822 1783 991 C1782.42572266 991.9276416 1782.42572266 991.9276416 1781.83984375 992.87402344 C1761.73808337 1025.38175954 1751.25754642 1064.35866903 1747 1102 C1746.91445862 1102.75521942 1746.82891724 1103.51043884 1746.74078369 1104.2885437 C1745.2073394 1118.13210926 1744.60342132 1131.8918863 1744.375 1145.8125 C1744.3366609 1147.78842563 1744.29760113 1149.76433741 1744.2578125 1151.74023438 C1744.16362042 1156.49337212 1744.07899343 1161.24658639 1744 1166 C1739.68348049 1164.63663502 1736.58830056 1163.21282622 1733 1160.4375 C1723.09854228 1153.04139094 1712.73402668 1146.72449011 1701.89550781 1140.81225586 C1697.31108787 1138.30755209 1692.81057339 1135.70353298 1688.34472656 1132.9934082 C1681.81543076 1129.04080485 1675.52519774 1125.82071128 1668.30078125 1123.265625 C1664.43811257 1121.7845544 1660.80680643 1120.00321136 1657.125 1118.125 C1643.25681244 1111.05664415 1629.43686083 1104.58287755 1614.4921875 1100.11328125 C1610.93099265 1098.97800101 1607.48163465 1097.67146062 1604 1096.3125 C1596.17835513 1093.28781258 1588.19540539 1090.78961375 1580.1875 1088.3125 C1578.95966797 1087.93198486 1577.73183594 1087.55146973 1576.46679688 1087.15942383 C1572.98256607 1086.08979889 1569.49346287 1085.03904172 1566 1084 C1565.0507666 1083.71431152 1564.1015332 1083.42862305 1563.12353516 1083.13427734 C1557.30050837 1081.45324065 1551.54134262 1080.40668862 1545.54492188 1079.54980469 C1541.67651155 1078.9498281 1537.84864452 1078.20349297 1534.015625 1077.4140625 C1491.87613393 1068.7797328 1449.17945398 1064.18257842 1406.125 1066.75 C1405.39867371 1066.79323395 1404.67234741 1066.8364679 1403.92401123 1066.88101196 C1376.5482453 1068.5540619 1349.87801903 1072.6163969 1323.03417969 1078.17382812 C1320.37168261 1078.72372823 1317.70649055 1079.25333022 1315.03613281 1079.76367188 C1307.22354606 1081.26937764 1299.61731254 1083.08009777 1292 1085.375 C1290.96311035 1085.6831665 1289.9262207 1085.99133301 1288.85791016 1086.30883789 C1274.22493813 1090.68868972 1259.89010113 1095.78430371 1245.56103516 1101.06396484 C1243.36232498 1101.8675735 1241.15864226 1102.6522867 1238.94921875 1103.42578125 C1224.27442128 1108.67895584 1209.3342452 1114.91285577 1196 1123 C1194.53377095 1123.59540965 1193.05369173 1124.15770051 1191.5625 1124.6875 C1183.26044986 1127.92972077 1175.72374443 1132.74139369 1168.12109375 1137.34375 C1167.48026855 1137.73167725 1166.83944336 1138.11960449 1166.17919922 1138.51928711 C1164.89774242 1139.29526418 1163.61681343 1140.07211358 1162.33642578 1140.84985352 C1158.85432492 1142.94759806 1155.3600464 1144.87206314 1151.6875 1146.625 C1147.38751023 1148.70085713 1143.64337199 1151.24404265 1139.77734375 1154.03515625 C1136.51192924 1156.34528775 1133.1773113 1158.52580956 1129.8125 1160.6875 C1128.95736816 1161.24002441 1128.95736816 1161.24002441 1128.08496094 1161.80371094 C1125.25976462 1163.61372984 1122.41122278 1165.34119033 1119.4765625 1166.96484375 C1115.92163514 1168.97440844 1112.7588565 1171.34317476 1109.5625 1173.875 C1108.4233856 1174.7632883 1107.28406341 1175.6513102 1106.14453125 1176.5390625 C1105.10683594 1177.35117188 1104.06914062 1178.16328125 1103 1179 C1098.96243051 1182.11215034 1094.89691114 1185.09155964 1090.625 1187.875 C1086.18647761 1190.77740768 1082.13317535 1194.06241684 1078.06640625 1197.4609375 C1076 1199 1076 1199 1074 1199 C1073.71962891 1199.83337891 1073.71962891 1199.83337891 1073.43359375 1200.68359375 C1071.32801529 1204.08579546 1068.3425822 1205.85035154 1065.0625 1208.0625 C1063.80158961 1208.92576825 1062.54241429 1209.79157735 1061.28515625 1210.66015625 C1060.72707275 1211.03793213 1060.16898926 1211.41570801 1059.59399414 1211.80493164 C1057.92563682 1212.98861385 1057.92563682 1212.98861385 1056.41967773 1214.64624023 C1055 1216 1055 1216 1053 1216 C1052.65388672 1216.84884766 1052.65388672 1216.84884766 1052.30078125 1217.71484375 C1050.66434829 1220.58965842 1048.66079606 1222.37101878 1046.1875 1224.5625 C1044.90939453 1225.70912109 1044.90939453 1225.70912109 1043.60546875 1226.87890625 C1041.1675044 1228.86363585 1038.69375185 1230.39570069 1036 1232 C1034.66104368 1233.66215268 1033.32869858 1235.32963607 1032 1237 C1030.0465668 1238.7937978 1028.03861588 1240.51106273 1026.01953125 1242.23046875 C1024.18868894 1243.83466908 1022.49741813 1245.49542117 1020.8125 1247.25 C1018 1250 1018 1250 1015.59375 1251.37890625 C1012.71459487 1253.17837821 1010.89538069 1255.11634826 1008.6875 1257.6875 C1003.92817647 1263.11202017 999.14203359 1268.5476811 993.4375 1273 C989.84711863 1275.94595394 987.00584668 1279.47247745 984 1283 C976.44987853 1291.77921101 976.44987853 1291.77921101 972.6875 1294.75 C969.95763363 1296.78328303 969.95763363 1296.78328303 968.63671875 1299.29296875 C966.7582117 1302.39990284 964.57513072 1304.88522951 962.125 1307.5625 C960.86042969 1308.95662109 960.86042969 1308.95662109 959.5703125 1310.37890625 C957 1313 957 1313 954.4609375 1314.97265625 C951.59909606 1317.33026848 949.66964947 1319.87263295 947.5 1322.875 C940.11098961 1332.94313833 940.11098961 1332.94313833 935.5625 1337.375 C932.34037391 1340.67571454 929.70803145 1344.27473846 927 1348 C925.98318622 1349.39876414 924.96241779 1350.794663 923.9375 1352.1875 C923.49277344 1352.79980469 923.04804688 1353.41210938 922.58984375 1354.04296875 C921 1356 921 1356 918.58984375 1358.390625 C916.01355003 1360.98634779 913.83501163 1363.65071275 911.625 1366.5625 C911.21435303 1367.10189209 910.80370605 1367.64128418 910.38061523 1368.19702148 C908.91483281 1370.12719443 907.45675336 1372.06300317 906 1374 C905.38108887 1374.82242187 904.76217773 1375.64484375 904.12451172 1376.4921875 C900.26214242 1381.62820673 896.40744085 1386.76991806 892.55883789 1391.91625977 C892.04442139 1392.60389404 891.53000488 1393.29152832 891 1394 C890.47978271 1394.74886475 889.95956543 1395.49772949 889.42358398 1396.26928711 C888.95380127 1396.84042236 888.48401855 1397.41155762 888 1398 C887.34 1398 886.68 1398 886 1398 C885.67515625 1399.24136719 885.67515625 1399.24136719 885.34375 1400.5078125 C883.67040401 1404.85656633 881.27997827 1408.16836231 878.5 1411.875 C878.00113281 1412.56335937 877.50226563 1413.25171875 876.98828125 1413.9609375 C875.71396113 1415.68280704 874.3626527 1417.34715274 873 1419 C872.34 1419 871.68 1419 871 1419 C870.773125 1419.680625 870.54625 1420.36125 870.3125 1421.0625 C868.94161872 1424.13066286 867.27141622 1426.50308976 865.28125 1429.1875 C863.71044318 1431.40961697 862.45546001 1433.77938828 861.13671875 1436.15625 C859.87474836 1438.2031573 858.45066785 1440.00600408 856.9375 1441.875 C850.11166115 1450.47265234 844.46941769 1460.00422509 838.6953125 1469.32421875 C838.15156982 1470.19771973 837.60782715 1471.0712207 837.04760742 1471.97119141 C835.98645774 1473.67900683 834.9317619 1475.39085179 833.8840332 1477.10693359 C833.40538818 1477.87730957 832.92674316 1478.64768555 832.43359375 1479.44140625 C832.01134521 1480.12920166 831.58909668 1480.81699707 831.15405273 1481.52563477 C830.58279663 1482.25544556 830.58279663 1482.25544556 830 1483 C829.34 1483 828.68 1483 828 1483 C827.7525 1483.70125 827.505 1484.4025 827.25 1485.125 C826 1488 826 1488 824.0625 1490.875 C821.9118962 1493.90891352 821.9118962 1493.90891352 820.6875 1497.25 C819.03662242 1501.31506414 816.53097588 1504.63042193 813.97265625 1508.171875 C811.04612007 1512.3675427 808.43575206 1516.73665158 805.796875 1521.1171875 C804 1524 804 1524 802.3515625 1526.18359375 C800.77418545 1528.30347909 799.88514795 1530.54756385 798.89453125 1532.984375 C797.20255824 1536.79685566 795.07386162 1540.38508706 793 1544 C788.66019258 1542.55339753 787.55962354 1539.24018978 785.4375 1535.4375 C784.54208203 1533.87661768 783.64490274 1532.31674462 782.74609375 1530.7578125 C782.28960449 1529.9627832 781.83311523 1529.16775391 781.36279297 1528.34863281 C775.88781981 1518.91308251 769.99031277 1509.82301219 763.54785156 1501.02246094 C760.25360408 1496.47948206 757.43583185 1491.75628891 754.765625 1486.81640625 C752.91588629 1483.86582747 750.82357663 1481.41739277 748.53027344 1478.81030273 C746.11272385 1475.95035854 744.07311313 1472.86385177 742 1469.75 C737.02489168 1462.37351145 731.7833146 1455.21872521 726.41992188 1448.12011719 C725.84435547 1447.35086914 725.26878906 1446.58162109 724.67578125 1445.7890625 C723.9010144 1444.76353271 723.9010144 1444.76353271 723.1105957 1443.71728516 C722 1442 722 1442 722 1440 C721.39929687 1439.76667969 720.79859375 1439.53335937 720.1796875 1439.29296875 C717.44726091 1437.67212072 716.63114762 1436.09078925 715.125 1433.3125 C713.191959 1429.90502212 711.23470345 1426.92360646 708.625 1424 C706 1421 706 1421 706 1419 C705.42121094 1418.77699219 704.84242187 1418.55398438 704.24609375 1418.32421875 C701.33288901 1416.60669456 699.99108532 1414.58126111 698.0625 1411.8125 C697.36640625 1410.82636719 696.6703125 1409.84023437 695.953125 1408.82421875 C694.81704549 1407.18144778 693.68140168 1405.53837501 692.546875 1403.89453125 C690.74061228 1401.30517361 688.9506581 1398.9506581 686.71484375 1396.71484375 C683.73765313 1393.73765313 680.98232855 1390.63749126 678.25 1387.4375 C677.75628906 1386.87353516 677.26257812 1386.30957031 676.75390625 1385.72851562 C674.26176324 1382.8096358 672.90951689 1380.66691061 672 1377 C671.4328125 1376.71769531 670.865625 1376.43539063 670.28125 1376.14453125 C666.88418797 1374.44018335 664.86768409 1371.57586523 662.5 1368.6875 C658.3418015 1363.72035109 654.10631812 1358.86215253 649.6875 1354.125 C642.84837951 1346.76793129 642.84837951 1346.76793129 639.875 1343.4375 C639.35679688 1342.85871094 638.83859375 1342.27992187 638.3046875 1341.68359375 C637 1340 637 1340 636.0703125 1337.91015625 C634.72182829 1335.50355487 633.45663337 1335.16415089 631 1334 C629.21875 1332.1953125 629.21875 1332.1953125 627.5 1330.125 C625.57818838 1327.84362363 623.70235618 1325.70998808 621.5625 1323.625 C620 1322 620 1322 620 1320 C619.34 1320 618.68 1320 618 1320 C616.81311994 1318.6206529 615.6289022 1317.23715997 614.51171875 1315.80078125 C612.48151639 1313.38237482 610.24718669 1311.21878124 608 1309 C606.83869789 1307.82926052 605.67861643 1306.65730939 604.51953125 1305.484375 C603.28389291 1304.23954488 602.04821518 1302.99475385 600.8125 1301.75 C600.18408203 1301.11320312 599.55566406 1300.47640625 598.90820312 1299.8203125 C598.30556641 1299.21445313 597.70292969 1298.60859375 597.08203125 1297.984375 C596.53780518 1297.43491211 595.9935791 1296.88544922 595.43286133 1296.31933594 C594.0161937 1294.89273848 594.0161937 1294.89273848 592 1294 C592 1293.34 592 1292.68 592 1292 C591.01 1292 590.02 1292 589 1292 C587.421875 1290.49609375 587.421875 1290.49609375 585.75 1288.4375 C580.13449684 1281.33051247 580.13449684 1281.33051247 573 1276 C573 1275.34 573 1274.68 573 1274 C572.40541992 1273.72760498 571.81083984 1273.45520996 571.19824219 1273.17456055 C569.05559444 1272.02970512 567.57993363 1270.87355302 565.828125 1269.20703125 C565.24949707 1268.66216064 564.67086914 1268.11729004 564.07470703 1267.5559082 C563.47255371 1266.9805835 562.87040039 1266.40525879 562.25 1265.8125 C561.00357765 1264.63438588 559.75618708 1263.45729526 558.5078125 1262.28125 C557.90743164 1261.71535156 557.30705078 1261.14945313 556.68847656 1260.56640625 C553.96102359 1258.03613756 551.12511404 1255.63895407 548.2578125 1253.26953125 C547 1252 547 1252 547 1250 C546.41065674 1249.89131592 545.82131348 1249.78263184 545.21411133 1249.6706543 C542.73215922 1248.91887103 541.50108769 1247.98515336 539.57421875 1246.26953125 C538.94193359 1245.71330078 538.30964844 1245.15707031 537.65820312 1244.58398438 C537.00787109 1243.99939453 536.35753906 1243.41480469 535.6875 1242.8125 C534.39988825 1241.67300907 533.11212844 1240.53368542 531.82421875 1239.39453125 C531.19209473 1238.8322583 530.5599707 1238.26998535 529.90869141 1237.69067383 C528.01272042 1236.01126745 526.1074786 1234.34393176 524.19140625 1232.6875 C523.64299072 1232.213125 523.0945752 1231.73875 522.52954102 1231.25 C520.84984416 1229.83381383 520.84984416 1229.83381383 518.25 1228.1875 C513.22474577 1224.80511735 508.66394234 1220.85915881 504 1217 C498.52202635 1212.4695247 493.2577357 1208.37917728 487 1205 C484.5625 1203.375 484.5625 1203.375 483 1202 C483 1201.34 483 1200.68 483 1200 C482.33226562 1199.78085938 481.66453125 1199.56171875 480.9765625 1199.3359375 C477.05433713 1197.57556864 473.83355531 1195.15726398 470.375 1192.625 C463.28604081 1187.51967363 456.02993358 1182.77636752 448.61254883 1178.1640625 C444.49889151 1175.59988135 440.48171506 1172.98276098 436.5625 1170.125 C432.23591365 1167.01196836 427.64898784 1164.76179072 422.85546875 1162.453125 C420.33073188 1161.16830678 418.07362769 1159.79854853 415.75 1158.1875 C405.72247082 1151.27321093 394.84917203 1145.78151857 383.78515625 1140.74609375 C379.78963649 1138.92162224 375.86137402 1136.9730294 371.9375 1135 C371.27355225 1134.66709961 370.60960449 1134.33419922 369.92553711 1133.99121094 C366.67400717 1132.35729228 363.43042175 1130.70915903 360.1953125 1129.04296875 C359.58308838 1128.73037109 358.97086426 1128.41777344 358.34008789 1128.09570312 C356.68392653 1127.2495391 355.03127155 1126.39652187 353.37890625 1125.54296875 C350.89929576 1124.41066107 348.64005013 1123.51909776 346.06640625 1122.69921875 C341.84413703 1121.34156877 337.74788632 1119.72564819 333.6484375 1118.0390625 C332.98140305 1117.76494034 332.31436859 1117.49081818 331.62712097 1117.20838928 C328.8526928 1116.06532512 326.08007719 1114.91796282 323.30908203 1113.76660156 C310.82455635 1108.58770352 298.26904923 1103.87971695 285.125 1100.625 C279.88611378 1099.29716427 274.67477995 1097.92308989 269.49609375 1096.375 C257.04325216 1092.67869857 244.55448388 1089.73059148 231.8125 1087.25 C231.08797638 1087.10733704 230.36345276 1086.96467407 229.61697388 1086.81768799 C210.6168254 1083.10296805 191.67574413 1080.6475638 172.32275391 1079.91918945 C169.49972129 1079.81248947 166.67773268 1079.68971886 163.85546875 1079.56445312 C144.79137411 1078.75452072 125.74519936 1078.69344239 106.6875 1079.6875 C105.88528015 1079.72912262 105.0830603 1079.77074524 104.25653076 1079.81362915 C67.91571332 1081.78227201 32.43899077 1089.44404103 -2.26953125 1100.18212891 C-5.67835372 1101.20319072 -9.10244894 1102.04505532 -12.5625 1102.875 C-24.04012236 1105.8782459 -35.00831628 1110.58847289 -46 1115 C-46.92304932 1115.36986023 -46.92304932 1115.36986023 -47.86474609 1115.74719238 C-62.51874313 1121.62450949 -77.01760204 1127.63835418 -91 1135 C-93.6189462 1136.34546011 -96.24604573 1137.6742304 -98.875 1139 C-100.00679687 1139.5775 -101.13859375 1140.155 -102.3046875 1140.75 C-105 1142 -105 1142 -107 1142 C-107 1142.66 -107 1143.32 -107 1144 C-107.60585938 1144.21914062 -108.21171875 1144.43828125 -108.8359375 1144.6640625 C-114.62622449 1146.85546342 -119.75230692 1149.49356328 -124.96875 1152.828125 C-127 1154 -127 1154 -129 1154 C-129.03963867 1153.30777344 -129.07927734 1152.61554688 -129.12011719 1151.90234375 C-130.97800003 1120.73918186 -136.40845669 1091.54104555 -147.20703125 1062.21777344 C-148.01480876 1059.95858289 -148.75011659 1057.68370164 -149.48046875 1055.3984375 C-150.85869872 1051.23165368 -152.6112087 1047.39343072 -154.625 1043.5 C-154.97054932 1042.82130859 -155.31609863 1042.14261719 -155.67211914 1041.44335938 C-156.77272972 1039.29096657 -157.8844989 1037.14470964 -159 1035 C-159.54648193 1033.94619141 -159.54648193 1033.94619141 -160.10400391 1032.87109375 C-164.24311119 1024.91169488 -168.49928532 1017.01933644 -172.875 1009.1875 C-173.24423584 1008.52363281 -173.61347168 1007.85976562 -173.99389648 1007.17578125 C-175.46555397 1004.56371623 -176.94771293 1002.06913513 -178.7578125 999.67578125 C-180 998 -180 998 -180 996 C-180.99 995.67 -181.98 995.34 -183 995 C-184.58076641 992.96509076 -186.02159277 990.95645302 -187.4375 988.8125 C-187.81970703 988.24724609 -188.20191406 987.68199219 -188.59570312 987.09960938 C-190.46929846 984.32261663 -192.31026279 981.52584611 -194.14453125 978.72265625 C-196.17730084 975.73983434 -198.38829222 973.49299379 -201 971 C-205.19762315 966.97949175 -209.09804277 962.99146359 -212.5625 958.3125 C-215.60938272 954.24062908 -218.80542289 951.82491928 -223 949 C-223 948.34 -223 947.68 -223 947 C-223.55300781 946.77828125 -224.10601563 946.5565625 -224.67578125 946.328125 C-227.73563849 944.57963515 -229.76654034 942.30720415 -232.1875 939.75 C-236.08730319 935.72651752 -239.99868393 932.39897484 -244.765625 929.44921875 C-247.2655658 927.82775365 -249.51236973 926.01857859 -251.8125 924.125 C-258.31907088 918.83461059 -265.24774905 914.04985999 -272.5625 909.9375 C-275.55278647 908.25206581 -278.42408814 906.4766495 -281.3125 904.625 C-286.48294624 901.3127937 -291.71501739 898.12542937 -297 895 C-297.60328125 894.63003906 -298.2065625 894.26007812 -298.828125 893.87890625 C-301.94058292 892.00997708 -305.05925422 890.54283948 -308.4375 889.25 C-312.876078 887.53721539 -317.0843801 885.48246247 -321.3125 883.3125 C-327.77817831 880.0180568 -334.33893139 877.00367337 -341 874.125 C-341.87180908 873.74384033 -342.74361816 873.36268066 -343.6418457 872.9699707 C-347.97387937 871.11991355 -352.12683199 869.63903635 -356.734375 868.59082031 C-362.09384807 867.1931991 -367.2821754 865.15812558 -372.5 863.3125 C-397.97948785 854.43679858 -423.5530499 848.19217913 -450 843 C-451.27456055 842.74976074 -452.54912109 842.49952148 -453.86230469 842.24169922 C-545.83588647 824.4743641 -640.36579129 824.17262322 -844.86499023 844.9284668 C-846.12960083 845.11542618 -847.39421143 845.30238556 -848.69714355 845.49501038 C-851.16501017 845.85988975 -853.63278533 846.22538826 -856.10046387 846.59153748 C-862.40169289 847.51529372 -868.68959355 848.32621598 -875.02734375 848.9453125 C-887.6928843 850.22091664 -900.18373676 852.7943375 -912.6875 855.125 C-914.01718363 855.37065949 -915.34692655 855.61599823 -916.67672729 855.86102295 C-934.90203963 859.21980254 -953.09480009 862.71871192 -971.21166992 866.62548828 C-978.79543585 868.2472378 -986.24472279 869.57542213 -994 870 C-992.51431191 848.23012143 -985.3625201 827.52437828 -978.55273438 806.93310547 C-976.5460999 800.853003 -974.62115091 794.77331805 -972.88671875 788.609375 C-971.44484683 783.48734107 -969.8781715 778.47724395 -968 773.5 C-967.71729248 772.73937256 -967.43458496 771.97874512 -967.14331055 771.19506836 C-965.17074286 765.94764042 -963.10696747 760.73776802 -961.01953125 755.53515625 C-960.75671356 754.88006073 -960.49389587 754.22496521 -960.22311401 753.55001831 C-958.91057207 750.28295135 -957.59188211 747.01854116 -956.26367188 743.7578125 C-953.56875769 737.09978923 -951.06005361 730.44777955 -948.90258789 723.59521484 C-947.6863935 720.09828588 -946.05900788 716.893353 -944.34765625 713.6171875 C-942.27717108 709.59624529 -940.42473378 705.4790134 -938.54296875 701.3671875 C-937.51250765 699.11843442 -936.47339963 696.87362401 -935.42578125 694.6328125 C-934.91402344 693.53710938 -934.40226562 692.44140625 -933.875 691.3125 C-933.19050781 689.85263672 -933.19050781 689.85263672 -932.4921875 688.36328125 C-931.70168075 686.58153698 -930.92191137 684.7930079 -930.23388672 682.96923828 C-926.98994786 674.37488324 -922.64133388 666.36778638 -918.375 658.25 C-916.83602677 655.32034997 -915.30307877 652.387656 -913.7734375 649.453125 C-913.42445404 648.79362854 -913.07547058 648.13413208 -912.71591187 647.45465088 C-910.76724437 643.71585237 -909.21725742 640.03678339 -908 636 C-907.34 636 -906.68 636 -906 636 C-905.75765625 635.16984375 -905.5153125 634.3396875 -905.265625 633.484375 C-903.80381617 629.45988897 -901.88504779 625.94806558 -899.75 622.25 C-899.34958496 621.54625244 -898.94916992 620.84250488 -898.53662109 620.11743164 C-896.29138932 616.18714936 -893.98611379 612.2995228 -891.625 608.4375 C-889.36256423 604.71885557 -887.61554967 601.03887418 -886 597 C-885.34711373 595.65986503 -884.68774405 594.32258472 -884 593 C-883.34 593 -882.68 593 -882 593 C-881.76023437 592.32710937 -881.52046875 591.65421875 -881.2734375 590.9609375 C-879.69877646 587.29960908 -877.70832385 584.01550744 -875.625 580.625 C-873.03412124 576.37595884 -870.47527777 572.11795683 -868.01806641 567.79003906 C-866.16461063 564.53115711 -864.27722336 561.29310934 -862.375 558.0625 C-861.98054687 557.37865234 -861.58609375 556.69480469 -861.1796875 555.99023438 C-860.17564713 554.29252422 -859.09408435 552.64112653 -858 551 C-857.34 551 -856.68 551 -856 551 C-855.74089844 550.27683594 -855.48179687 549.55367187 -855.21484375 548.80859375 C-853.95210385 545.88926902 -852.44252361 543.62175795 -850.5625 541.0625 C-848.66026192 538.47003298 -847.02374961 536.04890809 -845.6171875 533.15234375 C-843.63153545 529.28176113 -841.17670083 525.96460351 -838.5625 522.5 C-837.60420888 521.21969203 -836.64715934 519.93845373 -835.69140625 518.65625 C-835.2339502 518.04523437 -834.77649414 517.43421875 -834.30517578 516.8046875 C-833.06016478 515.0831908 -831.91398384 513.32544613 -830.77734375 511.53125 C-829.89755859 510.27828125 -829.89755859 510.27828125 -829 509 C-828.34 509 -827.68 509 -827 509 C-826.77957031 508.16597656 -826.55914063 507.33195312 -826.33203125 506.47265625 C-824.70414505 502.22869487 -822.41046617 499.04280846 -819.6875 495.4375 C-819.21376953 494.79103516 -818.74003906 494.14457031 -818.25195312 493.47851562 C-816.08186615 490.56032754 -813.9319047 487.93220556 -811.34765625 485.359375 C-808.97687577 482.97676034 -807.44167285 480.70457707 -805.75 477.8125 C-802.7229962 472.91568391 -799.30560776 468.85849066 -795.38671875 464.66015625 C-792.76673141 461.74000669 -790.36715257 458.68699504 -788 455.5625 C-780.48663078 445.66740425 -772.50611978 436.21379113 -764.34375 426.8515625 C-762.13848003 424.31934844 -759.95137374 421.77333239 -757.78125 419.2109375 C-752.97699895 413.54192126 -748.17645787 408.04534881 -742.81640625 402.88671875 C-740.07245044 400.03654529 -737.76769353 396.88482458 -735.4453125 393.6875 C-734.96835937 393.130625 -734.49140625 392.57375 -734 392 C-733.34 392 -732.68 392 -732 392 C-731.76539063 391.42507813 -731.53078125 390.85015625 -731.2890625 390.2578125 C-729.70423873 387.48196965 -727.82172839 385.92782785 -725.375 383.875 C-720.91996663 379.98087532 -717.26751943 375.86750989 -713.69140625 371.1640625 C-712.21538877 369.27557824 -710.81329945 367.56580175 -709 366 C-708.34 366 -707.68 366 -707 366 C-707 365.34 -707 364.68 -707 364 C-706.34 364 -705.68 364 -705 364 C-705 363.34 -705 362.68 -705 362 C-704.34 362 -703.68 362 -703 362 C-703 361.34 -703 360.68 -703 360 C-702.40316406 359.74089844 -701.80632812 359.48179687 -701.19140625 359.21484375 C-698.8208773 357.90070025 -697.638702 356.65528302 -695.9375 354.5625 C-689.55411935 347.02846705 -682.47855108 340.15179764 -674.96875 333.75 C-672.6755003 331.71155582 -670.5300501 329.5587841 -668.375 327.375 C-665.05504776 324.02064411 -661.76661353 320.84792731 -658 318 C-657.34 318 -656.68 318 -656 318 C-656 317.34 -656 316.68 -656 316 C-654.671875 314.625 -654.671875 314.625 -652.75 313 C-652.03199219 312.38769531 -651.31398438 311.77539062 -650.57421875 311.14453125 C-648.66425467 309.55337756 -646.75033717 307.96775276 -644.83203125 306.38671875 C-644.2915918 305.94005859 -643.75115234 305.49339844 -643.19433594 305.03320312 C-642.11606595 304.14400142 -641.03472806 303.25850548 -639.95019531 302.37695312 C-637.04923761 300.04882128 -637.04923761 300.04882128 -635 297 C-634.30261719 296.59136719 -633.60523438 296.18273437 -632.88671875 295.76171875 C-628.4618738 293.06130593 -624.7727324 289.55559896 -620.90820312 286.11914062 C-616.20564332 282 -616.20564332 282 -614 282 C-613.62681641 281.09314453 -613.62681641 281.09314453 -613.24609375 280.16796875 C-611.79216696 277.63840961 -610.5456907 276.8078029 -608.0625 275.3125 C-602.32282893 271.66081825 -597.21854058 267.35001056 -592 263 C-585.82697313 257.89035586 -579.98018653 253.22797818 -572.625 249.9375 C-570.64235617 249.03325133 -570.64235617 249.03325133 -570 246 C-568.42456055 244.59301758 -568.42456055 244.59301758 -566.38671875 243.14453125 C-565.63914307 242.60852295 -564.89156738 242.07251465 -564.12133789 241.52026367 C-562.91658813 240.67492065 -562.91658813 240.67492065 -561.6875 239.8125 C-560.86950928 239.23024658 -560.05151855 238.64799316 -559.20874023 238.0480957 C-553.78656755 234.20559013 -548.29747238 230.48303588 -542.7421875 226.8359375 C-537.38187011 223.24712101 -532.19665862 219.40067789 -527.0390625 215.52734375 C-523.45087224 212.87273241 -519.82343653 210.83184794 -515.79296875 208.9140625 C-513.67291475 207.83325066 -511.88187673 206.44759748 -510 205 C-509.34 205 -508.68 205 -508 205 C-508 204.34 -508 203.68 -508 203 C-506.60498047 201.87768555 -506.60498047 201.87768555 -504.6171875 200.63671875 C-503.87259277 200.16830566 -503.12799805 199.69989258 -502.36083984 199.21728516 C-501.13034912 198.4600415 -501.13034912 198.4600415 -499.875 197.6875 C-499.03275879 197.1620459 -498.19051758 196.6365918 -497.32275391 196.09521484 C-489.8395084 191.45398567 -482.26417874 186.96759675 -474.65185547 182.54174805 C-470.42373935 180.07423425 -466.27887578 177.5530805 -462.2265625 174.8046875 C-458.92368492 172.57045228 -455.6207775 170.68969617 -452 169 C-448.44299655 167.27052965 -445.11743862 165.51334931 -441.875 163.25 C-431.62286216 156.16805307 -420.28701559 150.53963754 -409.12426758 145.04614258 C-403.74168563 142.39317009 -398.42863969 139.61963924 -393.125 136.8125 C-387.62579456 133.90441248 -382.12669384 131.00924041 -376.546875 128.2578125 C-374.53153705 127.26250756 -372.52242913 126.25458869 -370.515625 125.2421875 C-362.28170551 121.08838115 -353.99542298 117.06391156 -345.64672852 113.14550781 C-342.01661444 111.43988087 -338.40907302 109.70906045 -334.8359375 107.88671875 C-331.50480208 106.20961321 -328.13252545 104.83916858 -324.625 103.5625 C-319.72727056 101.71738764 -315.09256106 99.64443264 -310.4453125 97.24609375 C-299.47755541 91.65709293 -288.01474314 86.59894997 -276.31591797 82.77685547 C-272.54009045 81.51028545 -268.83378037 80.07436667 -265.125 78.625 C-264.33762451 78.31828369 -263.55024902 78.01156738 -262.73901367 77.69555664 C-257.67311873 75.70428666 -252.71282953 73.55444841 -247.77734375 71.2578125 C-244.33895295 69.70062286 -240.86898888 68.23986672 -237.375 66.8125 C-236.18648437 66.32394531 -234.99796875 65.83539063 -233.7734375 65.33203125 C-231.0776072 64.30721455 -228.43336043 63.61974949 -225.609375 63.0390625 C-220.80824525 62.03480162 -216.42106446 60.37883438 -211.875 58.5625 C-203.28737636 55.21842951 -194.6558959 52.01600031 -185.97735596 48.91696167 C-184.63618603 48.43735327 -183.29578688 47.95558301 -181.95623779 47.47146606 C-175.84505152 45.26454748 -169.76567246 43.10250178 -163.43359375 41.609375 C-153.83712641 39.34001062 -144.50237582 36.09095163 -135.125 33.0625 C-102.86310745 22.6643721 -102.86310745 22.6643721 -91.90136719 20.61767578 C-85.46040372 19.24645081 -79.12698768 17.39584804 -72.77636719 15.66082764 C-58.65684249 11.80883668 -44.51653488 8.03829603 -30.324646 4.4614563 C-28.79077962 4.07449605 -27.25744002 3.68544094 -25.72467041 3.29415894 C-5.5468695 -1.8489565 -5.5468695 -1.8489565 0 0 Z " fill="#000000" transform="translate(1130,306)"/>
</svg>
